<svg width="44" height="40" viewBox="0 0 44 40" fill="none" xmlns="http://www.w3.org/2000/svg">
<path d="M4.31665 19.7446C4.31665 30.6491 13.0137 39.4891 23.7417 39.4891C34.4696 39.4891 43.1667 30.6491 43.1667 19.7446H23.7417H4.31665Z" fill="#DC4C2C"/>
<path d="M23.7417 0V19.7445H43.1667C43.1667 8.84006 34.4697 0 23.7417 0Z" fill="#F7A278"/>
<path d="M23.7417 0C13.0137 0 4.31665 8.84006 4.31665 19.7445H23.7417V0Z" fill="#C06346"/>
<path d="M19.7693 30.7137H1.81408C0.812613 30.7137 0 29.8878 0 28.8698V10.6193C0 9.60137 0.812613 8.77539 1.81408 8.77539H19.7693C20.7707 8.77539 21.5833 9.60137 21.5833 10.6193V28.8698C21.5833 29.8878 20.7707 30.7137 19.7693 30.7137Z" fill="#9B341F"/>
<path d="M11.518 14.2729H6.4751V25.2421H8.65933V21.3799H11.1155C13.14 21.3799 14.7814 19.7115 14.7814 17.6536V17.59C14.7814 15.7582 13.3203 14.2729 11.518 14.2729ZM12.4861 17.9432C12.4861 18.8855 11.7339 19.65 10.8069 19.65H8.65933V16.0028H10.8069C11.7339 16.0028 12.4861 16.7673 12.4861 17.7096V17.9432Z" fill="white"/>
</svg>
