<svg width="6" height="58" viewBox="0 0 6 58" fill="none" xmlns="http://www.w3.org/2000/svg">
<path d="M3 0.333333C1.52724 0.333333 0.333333 1.52724 0.333333 3C0.333333 4.47276 1.52724 5.66667 3 5.66667C4.47276 5.66667 5.66667 4.47276 5.66667 3C5.66667 1.52724 4.47276 0.333333 3 0.333333ZM3 52.3333C1.52724 52.3333 0.333335 53.5272 0.333336 55C0.333336 56.4728 1.52724 57.6667 3 57.6667C4.47276 57.6667 5.66667 56.4728 5.66667 55C5.66667 53.5272 4.47276 52.3333 3 52.3333ZM2.5 3L2.5 4L3.5 4L3.5 3L2.5 3ZM2.5 6L2.5 8L3.5 8L3.5 6L2.5 6ZM2.5 10L2.5 12L3.5 12L3.5 10L2.5 10ZM2.5 14L2.5 16L3.5 16L3.5 14L2.5 14ZM2.5 18L2.5 20L3.5 20L3.5 18L2.5 18ZM2.5 22L2.5 24L3.5 24L3.5 22L2.5 22ZM2.5 26L2.5 28L3.5 28L3.5 26L2.5 26ZM2.5 30L2.5 32L3.5 32L3.5 30L2.5 30ZM2.5 34L2.5 36L3.5 36L3.5 34L2.5 34ZM2.5 38L2.5 40L3.5 40L3.5 38L2.5 38ZM2.5 42L2.5 44L3.5 44L3.5 42L2.5 42ZM2.5 46L2.5 48L3.5 48L3.5 46L2.5 46ZM2.5 50L2.5 52L3.5 52L3.5 50L2.5 50ZM2.5 54L2.5 55L3.5 55L3.5 54L2.5 54Z" fill="#0577FB"/>
</svg>
