<svg width="390" height="66" viewBox="0 0 390 66" fill="none" xmlns="http://www.w3.org/2000/svg">
<g style="mix-blend-mode:multiply">
<path d="M1.21777 1.01562H12.3799L28.8154 47.9932L45.251 1.01562H56.4131L33.2979 65H24.333L1.21777 1.01562ZM-4.80273 1.01562H6.31543L8.33691 46.8066V65H-4.80273V1.01562ZM51.3154 1.01562H62.4775V65H49.2939V46.8066L51.3154 1.01562ZM116.97 54.7168V65H82.9121V54.7168H116.97ZM87.2188 1.01562V65H74.0352V1.01562H87.2188ZM112.531 27.0752V37.0947H82.9121V27.0752H112.531ZM116.926 1.01562V11.3428H82.9121V1.01562H116.926ZM157.971 48.2568C157.971 47.1143 157.795 46.0889 157.443 45.1807C157.121 44.2432 156.506 43.3936 155.598 42.6318C154.689 41.8408 153.415 41.0645 151.774 40.3027C150.134 39.541 148.01 38.75 145.402 37.9297C142.502 36.9922 139.748 35.9375 137.141 34.7656C134.562 33.5938 132.277 32.2314 130.285 30.6787C128.322 29.0967 126.77 27.2656 125.627 25.1855C124.514 23.1055 123.957 20.6885 123.957 17.9346C123.957 15.2686 124.543 12.8516 125.715 10.6836C126.887 8.48633 128.527 6.61133 130.637 5.05859C132.746 3.47656 135.236 2.26074 138.107 1.41113C141.008 0.561523 144.187 0.136719 147.644 0.136719C152.36 0.136719 156.477 0.986328 159.992 2.68555C163.508 4.38477 166.232 6.71387 168.166 9.67285C170.129 12.6318 171.11 16.0156 171.11 19.8242H158.015C158.015 17.9492 157.619 16.3086 156.828 14.9023C156.066 13.4668 154.895 12.3389 153.312 11.5186C151.76 10.6982 149.797 10.2881 147.424 10.2881C145.139 10.2881 143.234 10.6396 141.711 11.3428C140.188 12.0166 139.045 12.9395 138.283 14.1113C137.521 15.2539 137.141 16.543 137.141 17.9785C137.141 19.0625 137.404 20.0439 137.932 20.9229C138.488 21.8018 139.309 22.6221 140.393 23.3838C141.477 24.1455 142.81 24.8633 144.392 25.5371C145.974 26.2109 147.805 26.8701 149.885 27.5146C153.371 28.5693 156.433 29.7559 159.069 31.0742C161.735 32.3926 163.962 33.8721 165.749 35.5127C167.536 37.1533 168.884 39.0137 169.792 41.0938C170.7 43.1738 171.154 45.5322 171.154 48.1689C171.154 50.9521 170.612 53.4424 169.528 55.6396C168.444 57.8369 166.877 59.6973 164.826 61.2207C162.775 62.7441 160.329 63.9014 157.487 64.6924C154.646 65.4834 151.467 65.8789 147.951 65.8789C144.787 65.8789 141.667 65.4688 138.591 64.6484C135.515 63.7988 132.717 62.5244 130.197 60.8252C127.707 59.126 125.715 56.958 124.221 54.3213C122.727 51.6846 121.979 48.5645 121.979 44.9609H135.207C135.207 46.9531 135.515 48.6377 136.13 50.0146C136.745 51.3916 137.609 52.5049 138.723 53.3545C139.865 54.2041 141.213 54.8193 142.766 55.2002C144.348 55.5811 146.076 55.7715 147.951 55.7715C150.236 55.7715 152.111 55.4492 153.576 54.8047C155.07 54.1602 156.169 53.2666 156.872 52.124C157.604 50.9814 157.971 49.6924 157.971 48.2568ZM213.43 48.2568C213.43 47.1143 213.254 46.0889 212.902 45.1807C212.58 44.2432 211.965 43.3936 211.057 42.6318C210.148 41.8408 208.874 41.0645 207.233 40.3027C205.593 39.541 203.469 38.75 200.861 37.9297C197.961 36.9922 195.207 35.9375 192.6 34.7656C190.021 33.5938 187.736 32.2314 185.744 30.6787C183.781 29.0967 182.229 27.2656 181.086 25.1855C179.973 23.1055 179.416 20.6885 179.416 17.9346C179.416 15.2686 180.002 12.8516 181.174 10.6836C182.346 8.48633 183.986 6.61133 186.096 5.05859C188.205 3.47656 190.695 2.26074 193.566 1.41113C196.467 0.561523 199.646 0.136719 203.103 0.136719C207.819 0.136719 211.936 0.986328 215.451 2.68555C218.967 4.38477 221.691 6.71387 223.625 9.67285C225.588 12.6318 226.569 16.0156 226.569 19.8242H213.474C213.474 17.9492 213.078 16.3086 212.287 14.9023C211.525 13.4668 210.354 12.3389 208.771 11.5186C207.219 10.6982 205.256 10.2881 202.883 10.2881C200.598 10.2881 198.693 10.6396 197.17 11.3428C195.646 12.0166 194.504 12.9395 193.742 14.1113C192.98 15.2539 192.6 16.543 192.6 17.9785C192.6 19.0625 192.863 20.0439 193.391 20.9229C193.947 21.8018 194.768 22.6221 195.852 23.3838C196.936 24.1455 198.269 24.8633 199.851 25.5371C201.433 26.2109 203.264 26.8701 205.344 27.5146C208.83 28.5693 211.892 29.7559 214.528 31.0742C217.194 32.3926 219.421 33.8721 221.208 35.5127C222.995 37.1533 224.343 39.0137 225.251 41.0938C226.159 43.1738 226.613 45.5322 226.613 48.1689C226.613 50.9521 226.071 53.4424 224.987 55.6396C223.903 57.8369 222.336 59.6973 220.285 61.2207C218.234 62.7441 215.788 63.9014 212.946 64.6924C210.104 65.4834 206.926 65.8789 203.41 65.8789C200.246 65.8789 197.126 65.4688 194.05 64.6484C190.974 63.7988 188.176 62.5244 185.656 60.8252C183.166 59.126 181.174 56.958 179.68 54.3213C178.186 51.6846 177.438 48.5645 177.438 44.9609H190.666C190.666 46.9531 190.974 48.6377 191.589 50.0146C192.204 51.3916 193.068 52.5049 194.182 53.3545C195.324 54.2041 196.672 54.8193 198.225 55.2002C199.807 55.5811 201.535 55.7715 203.41 55.7715C205.695 55.7715 207.57 55.4492 209.035 54.8047C210.529 54.1602 211.628 53.2666 212.331 52.124C213.063 50.9814 213.43 49.6924 213.43 48.2568ZM261.594 11.958L244.191 65H230.173L253.947 1.01562H262.868L261.594 11.958ZM276.052 65L258.605 11.958L257.199 1.01562H266.208L290.114 65H276.052ZM275.261 41.1816V51.5088H241.467V41.1816H275.261ZM345.969 31.5576V56.9141C344.973 58.1152 343.435 59.4189 341.354 60.8252C339.274 62.2021 336.594 63.3887 333.312 64.3848C330.031 65.3809 326.062 65.8789 321.403 65.8789C317.272 65.8789 313.508 65.2051 310.109 63.8574C306.711 62.4805 303.781 60.4736 301.32 57.8369C298.889 55.2002 297.014 51.9775 295.695 48.1689C294.377 44.3311 293.718 39.9512 293.718 35.0293V31.0303C293.718 26.1084 294.348 21.7285 295.607 17.8906C296.896 14.0527 298.728 10.8154 301.101 8.17871C303.474 5.54199 306.301 3.53516 309.582 2.1582C312.863 0.78125 316.511 0.0927734 320.524 0.0927734C326.091 0.0927734 330.661 1.00098 334.235 2.81738C337.81 4.60449 340.534 7.09473 342.409 10.2881C344.313 13.4521 345.485 17.085 345.925 21.1865H333.137C332.814 19.0186 332.199 17.1289 331.291 15.5176C330.383 13.9062 329.079 12.6465 327.38 11.7383C325.71 10.8301 323.542 10.376 320.876 10.376C318.679 10.376 316.716 10.8301 314.987 11.7383C313.288 12.6172 311.853 13.9209 310.681 15.6494C309.509 17.3779 308.615 19.5166 308 22.0654C307.385 24.6143 307.077 27.5732 307.077 30.9424V35.0293C307.077 38.3691 307.399 41.3281 308.044 43.9062C308.688 46.4551 309.641 48.6084 310.9 50.3662C312.189 52.0947 313.771 53.3984 315.646 54.2773C317.521 55.1562 319.704 55.5957 322.194 55.5957C324.274 55.5957 326.003 55.4199 327.38 55.0684C328.786 54.7168 329.914 54.292 330.764 53.7939C331.643 53.2666 332.316 52.7686 332.785 52.2998V40.9619H320.744V31.5576H345.969ZM399.538 54.7168V65H365.48V54.7168H399.538ZM369.787 1.01562V65H356.604V1.01562H369.787ZM395.1 27.0752V37.0947H365.48V27.0752H395.1ZM399.494 1.01562V11.3428H365.48V1.01562H399.494Z" fill="#3A9CFF"/>
</g>
</svg>
