<?xml version="1.0" encoding="UTF-8"?>
<svg id="_レイヤー_1" data-name="レイヤー 1" xmlns="http://www.w3.org/2000/svg" viewBox="0 0 189 269">
  <defs>
    <style>
      .cls-1 {
        fill: #f7e537;
      }
    </style>
  </defs>
  <path class="cls-1" d="M93.56,2.57s-.04-.06-.05-.07c-6.05,8.17-34.59,46.74-58.6,79.19L0,128.78h.06s-.05.07-.06.08h52.18c1.14,0,3.09-.36,4.2,0,1.83.6,1.18-.08,1.52,3.09,1.08,10.32,1.51,20.78.76,31.13-1.49,20.55-5.99,41.62-15.62,59.99-5,9.52-10.79,18.41-17.81,26.57-1.32,1.54-2.69,3.02-4.08,4.48-.09.1-.19.2-.28.3-3.88,4.04-7.97,7.83-12.04,11.71l-1.45,1.32s.04,0,.06.01c-.03.02-.05.05-.07.07,8.7,1.84,17.58,1.86,26.3.59.02,0,.04,0,.06,0,2.15-.32,4.28-.71,6.4-1.19.32-.07.65-.15.97-.23,1.82-.43,3.63-.9,5.42-1.44.95-.28,1.89-.61,2.84-.93,1.15-.39,2.3-.76,3.43-1.2,2.65-.99,5.28-2.07,7.88-3.31.74-.41,1.74-.96,3.02-1.68,0,0,0,0,0,0-4.11,2.29-10.46,5.93,2-1.02.45-.27.61-.38.57-.37,21.02-12.88,37.87-30.45,49.18-52.51,11.94-23.29,17.54-49.27,17.41-75.38h54.19c-8.66-11.7-63.38-85.64-84.93-114.76l-8.51-11.54-.02.02Z"/>
</svg>