<?xml version="1.0" encoding="UTF-8"?>
<svg id="_レイヤー_1" data-name="レイヤー 1" xmlns="http://www.w3.org/2000/svg" viewBox="0 0 207 536.5">
  <defs>
    <style>
      .cls-1 {
        fill: #f7e537;
      }
    </style>
  </defs>
  <path class="cls-1" d="M3.41,515.12s30.03-11.7,36.71-40.33c6.68-28.63-6.72-59.2-6.72-59.2,0,0-21.91,27.04-27.39,45.56-5.47,18.52-2.61,53.97-2.61,53.97Z"/>
  <path class="cls-1" d="M.04,529.89s31.16-25.31,62.22-31.66c31.06-6.35,53.38,1.63,53.38,1.63,0,0-23.43,29.33-56.66,35.27-21.04,3.76-58.94-5.24-58.94-5.24Z"/>
  <g>
    <path class="cls-1" d="M60.1,451.44s18.12-16.25,21.05-42.53c2.92-26.29-14.38-54.7-14.38-54.7,0,0-12.96,31.28-15.14,51.69-2.18,20.4,8.48,45.54,8.48,45.54Z"/>
    <path class="cls-1" d="M58.19,475.32s13.41-25.1,45.86-39.67c32.44-14.58,53.88-10.03,53.88-10.03,0,0-19.03,32.67-38.86,44.9-19.82,12.23-60.88,4.8-60.88,4.8Z"/>
  </g>
  <g>
    <path class="cls-1" d="M101.52,383.1s14.75-25.78,11.58-51.18c-3.16-25.39-20.67-36.56-20.67-36.56,0,0-7.77,26.3-6.65,42.73,1.13,16.44,15.74,45.01,15.74,45.01Z"/>
    <path class="cls-1" d="M104.19,401.28s14.31-31.97,47.73-48.24c25.01-12.18,39.63-13.4,39.63-13.4,0,0-13.86,40.54-33.95,54.99-20.09,14.45-53.41,6.66-53.41,6.66Z"/>
  </g>
  <g>
    <path class="cls-1" d="M130.87,310.94s5.58-28.85-5.14-51.83c-10.72-22.98-30.21-28.14-30.21-28.14,0,0,.97,27.19,7.06,42.35,6.09,15.16,28.29,37.62,28.29,37.62Z"/>
    <path class="cls-1" d="M138.18,327.25s4-33.35,29.35-59.13c18.8-19.12,32.51-24.48,32.51-24.48,0,0-.42,41.67-14.57,61.15-14.15,19.48-47.3,22.46-47.3,22.46Z"/>
  </g>
  <g>
    <path class="cls-1" d="M133.83,235.53s-.14-27.22-13.95-46c-13.81-18.78-32.33-19.73-32.33-19.73,0,0,5.76,24.47,13.98,37.04,8.22,12.58,32.3,28.69,32.3,28.69Z"/>
    <path class="cls-1" d="M145.36,244.71s-2.82-29.44,14.15-55.6c14.09-21.71,22.79-26.52,22.79-26.52,0,0,6.88,35.69-1.51,54.78-8.38,19.09-35.43,27.35-35.43,27.35Z"/>
  </g>
  <g>
    <path class="cls-1" d="M124.15,165.24s-6.47-24.53-23.27-38.08c-16.79-13.55-33.67-9.86-33.67-9.86,0,0,10.88,20.66,21.21,29.99,10.33,9.33,35.73,17.95,35.73,17.95Z"/>
    <path class="cls-1" d="M139.51,173.48s-15.36-23.76-10.6-52.59c3.92-23.75,8.33-31.74,8.33-31.74,0,0,20.13,27.14,20.82,46.65.69,19.52-18.55,37.67-18.55,37.67Z"/>
  </g>
  <g>
    <path class="cls-1" d="M99.98,103.69s-11.04-18.07-27.71-24.72c-16.67-6.65-29.28.57-29.28.57,0,0,13.64,13.85,24.13,18.74,10.49,4.89,32.87,5.41,32.87,5.41Z"/>
    <path class="cls-1" d="M113.95,110.57s-17.2-16.62-17.92-41.22c-.58-19.86,1.18-27.64,1.18-27.64,0,0,21.19,18.52,25.2,34.42,4.01,15.91-8.46,34.44-8.46,34.44Z"/>
  </g>
  <g>
    <path class="cls-1" d="M68.32,61.03s-9.82-10.43-21.82-12.42c-12-1.99-19.41,4.68-19.41,4.68,0,0,10.97,7.24,18.62,8.95,7.65,1.72,22.61-1.22,22.61-1.22Z"/>
    <path class="cls-1" d="M79.41,61.17s-13.66-8.4-17.97-24.62c-3.06-11.51-3.32-18.59-3.32-18.59,0,0,16.76,8.99,21.77,18.95,5.01,9.96-.49,24.27-.49,24.27Z"/>
  </g>
  <path class="cls-1" d="M49.24,34.71s2.6-13.86-8.24-24.31C30.16-.04,13.6,1.4,13.6,1.4c0,0,4.55,13.59,12.97,21.26,8.41,7.66,22.67,12.06,22.67,12.06Z"/>
</svg>