<?xml version="1.0" encoding="UTF-8"?>
<svg id="_レイヤー_2" xmlns="http://www.w3.org/2000/svg" version="1.1" viewBox="0 0 591 628">
  <!-- Generator: Adobe Illustrator 29.1.0, SVG Export Plug-In . SVG Version: 2.1.0 Build 142)  -->
  <defs>
    <style>
      .st0 {
        fill: #3c4358;
      }

      .st1 {
        fill: #fff;
        opacity: .2;
      }

      .st1, .st2, .st3 {
        isolation: isolate;
      }

      .st4 {
        fill: #0577fb;
      }

      .st3 {
        opacity: 0;
      }

      .st5 {
        fill: #cdcdd5;
      }

      .st6 {
        fill: #efefef;
      }

      .st7 {
        fill: #dfdfdf;
      }

      .st8 {
        fill: #ffc9ca;
      }

      .st9 {
        fill: #cfcfcf;
      }

      .st10 {
        fill: #e7e7ee;
      }

      .st11 {
        fill: #ffd3d4;
      }
    </style>
  </defs>
  <path class="st4" d="M567.3,60.9c0-1.8-4.8-6-11.2-10.1-.3-7.6-1.6-13.9-3.1-14.8-1.5-.9-2.8,3.9-3.1,11.2-6.4-3.3-11.2-4.7-11.2-2.9s4.8,6,11.2,10.1c.3,7.6,1.6,13.9,3.1,14.8s2.8-3.9,3.1-11.2c6.4,3.3,11.2,4.7,11.2,2.9Z"/>
  <path class="st4" d="M28.7,532.5c0-1.8-4.8-6-11.2-10.1-.3-7.6-1.6-13.9-3.1-14.8s-2.8,3.9-3.1,11.2C4.8,515.5,0,514.2,0,516s4.8,6,11.2,10.1c.3,7.6,1.6,13.9,3.1,14.8s2.8-3.9,3.1-11.2c6.4,3.3,11.2,4.7,11.2,2.9Z"/>
  <path class="st4" d="M591,611.8c0-1.8-4.8-6-11.2-10.1-.3-7.6-1.6-13.9-3.1-14.8-1.5-.9-2.8,3.9-3.1,11.2-6.4-3.3-11.2-4.7-11.2-2.9s4.8,6,11.2,10.1c.3,7.6,1.6,13.9,3.1,14.8s2.8-3.9,3.1-11.2c6.4,3.3,11.2,4.7,11.2,2.9h0Z"/>
  <g class="st2">
    <path class="st9" d="M342.2,473.6c2.4,1.4,4.3,4.6,4.2,7.3,0,2.7-1.9,3.8-4.3,2.4l-121.8-70.3c-2.4-1.4-4.3-4.6-4.2-7.3,0-2.7,1.9-3.8,4.3-2.4l121.8,70.3h0Z"/>
    <path class="st9" d="M342.3,454.1c2.4,1.4,4.3,4.6,4.2,7.3,0,2.7-1.9,3.8-4.3,2.4l-121.8-70.3c-2.4-1.4-4.3-4.6-4.2-7.3s1.9-3.8,4.3-2.4l121.8,70.3h0Z"/>
    <path class="st9" d="M324,414.3c3.3,1.9,5.9,6.5,5.9,10.3s-2.7,5.3-6,3.4l-85.2-49.2c-3.3-1.9-5.9-6.5-5.9-10.3,0-3.8,2.7-5.3,6-3.4l85.2,49.2Z"/>
    <path class="st6" d="M381,230.2c2.4,1.4,4.3,4.6,4.2,7.3l-.9,314.4c0,2.7-1.9,3.8-4.3,2.4l-198-114.3c-2.4-1.4-4.3-4.6-4.2-7.3l.9-314.4c0-2.7,1.9-3.8,4.3-2.4l198,114.3h0ZM281.5,366.8c39.9,23,72.3,4.5,72.4-41.3.1-45.8-32.1-101.6-72-124.6-39.9-23-72.3-4.5-72.4,41.3-.1,45.8,32.1,101.6,72,124.6M232.9,368.6c0,3.8,2.6,8.4,5.9,10.3l85.2,49.2c3.3,1.9,6,.4,6-3.4,0-3.8-2.6-8.4-5.9-10.3l-85.2-49.2c-3.3-1.9-6-.4-6,3.4M342.1,502.9c2.4,1.4,4.3.3,4.3-2.4,0-2.7-1.9-6-4.2-7.3l-121.8-70.3c-2.4-1.4-4.3-.3-4.3,2.4,0,2.7,1.9,6,4.2,7.4l121.8,70.3M342.2,463.9c2.4,1.4,4.3.3,4.3-2.4s-1.9-6-4.2-7.3l-121.8-70.3c-2.4-1.4-4.3-.3-4.3,2.4s1.9,6,4.2,7.3l121.8,70.3M342.2,483.4c2.4,1.4,4.3.3,4.3-2.4,0-2.7-1.9-6-4.2-7.3l-121.8-70.3c-2.4-1.4-4.3-.3-4.3,2.4,0,2.7,1.9,6,4.2,7.3l121.8,70.3"/>
    <path class="st9" d="M342.2,493.1c2.4,1.4,4.3,4.6,4.2,7.3,0,2.7-1.9,3.8-4.3,2.4l-121.8-70.3c-2.4-1.4-4.3-4.6-4.2-7.3,0-2.7,1.9-3.8,4.3-2.4l121.8,70.3h0Z"/>
    <g>
      <path class="st7" d="M282,200.9c39.9,23,72.1,78.8,72,124.6-.1,45.8-32.6,64.3-72.4,41.3-39.9-23-72.1-78.8-72-124.6.1-45.8,32.6-64.3,72.4-41.3h0Z"/>
      <path class="st10" d="M263.1,323.6c-8.6.6-15.1,3.6-20.3,7.8,6.5,8.5,13.6,16.2,21.3,22.8.9-17.7.7-30.7-1-30.6h0Z"/>
      <path class="st10" d="M281.5,366.8c20,11.6,38.1,12.6,51.3,5.1-.1-2.1-.3-4.2-.4-6-1-11.5-12.4-30-23.2-34.5-10.8-4.6-12.4-8.2-42.2-8.8-8.9,1.7-15.6,6.9-20.5,13.5,10.4,12.7,22.3,23.4,35.1,30.8h0Z"/>
      <polygon class="st5" points="256.2 341.8 256.2 341.8 256.7 338.6 256.2 341.8"/>
      <path class="st8" d="M264.6,326.9c2.1-2.4,4.5-2.5,4.5-2.5,0,0,1.5-9.7,1.6-10.5l27.2-2.4s-.9,15.7,1.1,17.1c3.9,2.6,10.7,1.4,8.7,7.4-2,6-26,15.4-37,11.4-11-4-8.2-18.2-6.1-20.6Z"/>
      <path class="st11" d="M257.2,253.8c-7.5,8.8-2.2,31.3-2.2,31.3,0,0-3.7,26.4,19.9,35.6,18.7,7.3,36-12.1,36-12.1,0,0,28.1-50.6-4.1-63.9s-42.1.2-49.6,9h0Z"/>
      <path class="st0" d="M278,232.1c24.3-5.7,38.8,5.7,39.6,12.2,6.5,3,12.2,10.8,11.8,22.5-.8,22.6-18.4,41.9-18.4,41.9,0,0-3.8-6.6-.4-5.8,4.3.9,12.3-19.9,7.9-25.5-4.4-5.6-10.6,12.7-10.6,12.7l-3.7,4.9-.8-12.3s-2.9-1.3-7.7-9.4c-4.3-7.2-21.2-15.1-25.9-14.1-5.1,1.1-16.6,7.4-16.5,8.7v4.8c0,0-2.7-2.2-3.2-8-.6-5.9-.6-25.8,28-32.5h0Z"/>
      <path class="st10" d="M346.6,357.3c-8.7-10.5-33.4-24.4-33-23.2.6,1.8-2.7,31-4.1,42.4,16.2,1.5,29.4-5.5,37-19.2h0Z"/>
    </g>
  </g>
  <path class="st4" d="M490.6,190L324.6,49.6,166.6,0l-42.3,24.6h0s-52.7,34.3-52.7,34.3c1.3,21.9,26.7,438.1,209.3,543.5,40.8,23.6,73.9,22.5,100.6,6.6-.3.2-.6.4-.8.6l42.3-24.6c93.7-54.5,110.7-291.8,111.8-307.6l-44.1-87.4h0ZM182.1,440.1c-2.4-1.4-4.3-4.6-4.2-7.3l.9-314.4c0-2.7,1.9-3.8,4.3-2.4l198,114.3c2.4,1.4,4.3,4.6,4.2,7.3l-.9,314.4c0,2.7-1.9,3.8-4.3,2.4l-198-114.3h0ZM388.2,604.6c.5-.4,1-.7,1.5-1.1-.5.4-1,.7-1.5,1.1Z"/>
  <path class="st3" d="M490.6,190L324.6,49.6,166.6,0l-42.3,24.6,158,49.5,166.1,140.4,44.1,87.4c-1.1,15.8-18.1,253.2-111.8,307.6l42.3-24.6c93.7-54.5,110.7-291.8,111.8-307.6l-44.1-87.4h0Z"/>
  <g>
    <path class="st1" d="M173.8,40.2l-77.6,204.6c9.2,46.5,21.6,96.8,38.6,145.3l122.8-323.7-83.7-26.3s0,0,0,0Z"/>
    <path class="st1" d="M124.3,24.6l-52.7,34.3c.4,5.8,2.5,39.8,8.7,88.3L126.6,25.4s-2.3-.7-2.3-.7Z"/>
    <path class="st1" d="M491.3,316.5l-111.4,293.5c83.1-47.2,106.3-237.8,111.4-293.5h0Z"/>
  </g>
</svg>